<?xml version="1.0" encoding="UTF-8" standalone="no"?>
<svg
   xmlns:dc="http://purl.org/dc/elements/1.1/"
   xmlns:cc="http://creativecommons.org/ns#"
   xmlns:rdf="http://www.w3.org/1999/02/22-rdf-syntax-ns#"
   xmlns:svg="http://www.w3.org/2000/svg"
   xmlns="http://www.w3.org/2000/svg"
   viewBox="0 0 849.33331 1025.3333"
   height="1025.3333"
   width="849.33331"
   xml:space="preserve"
   id="svg2"
   version="1.1"><metadata
     id="metadata8"><rdf:RDF><cc:Work
         rdf:about=""><dc:format>image/svg+xml</dc:format><dc:type
           rdf:resource="http://purl.org/dc/dcmitype/StillImage" /></cc:Work></rdf:RDF></metadata><defs
     id="defs6"><clipPath
       id="clipPath18"
       clipPathUnits="userSpaceOnUse"><path
         id="path16"
         d="M 0,0 H 1020.48 V 850.32 H 0 Z" /></clipPath><clipPath
       id="clipPath22"
       clipPathUnits="userSpaceOnUse"><path
         style="clip-rule:evenodd"
         id="path20"
         d="M 0,1.8311e-4 H 1020.48 V 850.32018 H 0 Z" /></clipPath><clipPath
       id="clipPath26"
       clipPathUnits="userSpaceOnUse"><path
         style="clip-rule:evenodd"
         id="path24"
         d="M 1.5206e-5,0 H 1020.48 V 850.32 H 1.5206e-5 Z" /></clipPath><clipPath
       id="clipPath30"
       clipPathUnits="userSpaceOnUse"><path
         style="clip-rule:evenodd"
         id="path28"
         d="M 1.5206e-5,0 H 1020.48 V 850.32 H 1.5206e-5 Z" /></clipPath><clipPath
       id="clipPath34"
       clipPathUnits="userSpaceOnUse"><path
         style="clip-rule:evenodd"
         id="path32"
         d="M 1.5206e-5,0 H 1020.48 V 850.32 H 1.5206e-5 Z" /></clipPath><clipPath
       id="clipPath38"
       clipPathUnits="userSpaceOnUse"><path
         style="clip-rule:evenodd"
         id="path36"
         d="M 1.5206e-5,0 H 1020.48 V 850.32 H 1.5206e-5 Z" /></clipPath><clipPath
       id="clipPath42"
       clipPathUnits="userSpaceOnUse"><path
         style="clip-rule:evenodd"
         id="path40"
         d="M 1.5206e-5,0 H 1020.48 V 850.32 H 1.5206e-5 Z" /></clipPath><clipPath
       id="clipPath46"
       clipPathUnits="userSpaceOnUse"><path
         style="clip-rule:evenodd"
         id="path44"
         d="M 1.5206e-5,0 H 1020.48 V 850.32 H 1.5206e-5 Z" /></clipPath><clipPath
       id="clipPath50"
       clipPathUnits="userSpaceOnUse"><path
         style="clip-rule:evenodd"
         id="path48"
         d="M 1.5206e-5,0 H 1020.48 V 850.32 H 1.5206e-5 Z" /></clipPath><clipPath
       id="clipPath54"
       clipPathUnits="userSpaceOnUse"><path
         style="clip-rule:evenodd"
         id="path52"
         d="M 1.5206e-5,0 H 1020.48 V 850.32 H 1.5206e-5 Z" /></clipPath><clipPath
       id="clipPath58"
       clipPathUnits="userSpaceOnUse"><path
         style="clip-rule:evenodd"
         id="path56"
         d="M 1.5206e-5,0 H 1020.48 V 850.32 H 1.5206e-5 Z" /></clipPath><clipPath
       id="clipPath62"
       clipPathUnits="userSpaceOnUse"><path
         style="clip-rule:evenodd"
         id="path60"
         d="M 1.5206e-5,0 H 1020.48 V 850.32 H 1.5206e-5 Z" /></clipPath><clipPath
       id="clipPath66"
       clipPathUnits="userSpaceOnUse"><path
         style="clip-rule:evenodd"
         id="path64"
         d="M 1.5206e-5,0 H 1020.48 V 850.32 H 1.5206e-5 Z" /></clipPath><clipPath
       id="clipPath70"
       clipPathUnits="userSpaceOnUse"><path
         style="clip-rule:evenodd"
         id="path68"
         d="M 1.5206e-5,0 H 1020.48 V 850.32 H 1.5206e-5 Z" /></clipPath><clipPath
       id="clipPath74"
       clipPathUnits="userSpaceOnUse"><path
         style="clip-rule:evenodd"
         id="path72"
         d="M 0,850.32 H 1020.48 V 1.8311e-4 L 0,1.2207e-4" /></clipPath><clipPath
       id="clipPath78"
       clipPathUnits="userSpaceOnUse"><path
         style="clip-rule:evenodd"
         id="path76"
         d="M 1.5206e-5,0 H 1020.48 V 850.32 H 1.5206e-5 Z" /></clipPath><clipPath
       id="clipPath82"
       clipPathUnits="userSpaceOnUse"><path
         style="clip-rule:evenodd"
         id="path80"
         d="M 1.5206e-5,0 H 1020.48 V 850.32 H 1.5206e-5 Z" /></clipPath><clipPath
       id="clipPath86"
       clipPathUnits="userSpaceOnUse"><path
         style="clip-rule:evenodd"
         id="path84"
         d="M 1.5206e-5,0 H 1020.48 V 850.32 H 1.5206e-5 Z" /></clipPath><clipPath
       id="clipPath90"
       clipPathUnits="userSpaceOnUse"><path
         style="clip-rule:evenodd"
         id="path88"
         d="M 1.5206e-5,0 H 1020.48 V 850.32 H 1.5206e-5 Z" /></clipPath><clipPath
       id="clipPath94"
       clipPathUnits="userSpaceOnUse"><path
         style="clip-rule:evenodd"
         id="path92"
         d="M 1.5206e-5,0 H 1020.48 V 850.32 H 1.5206e-5 Z" /></clipPath><clipPath
       id="clipPath98"
       clipPathUnits="userSpaceOnUse"><path
         style="clip-rule:evenodd"
         id="path96"
         d="M 1.5206e-5,0 H 1020.48 V 850.32 H 1.5206e-5 Z" /></clipPath><clipPath
       id="clipPath102"
       clipPathUnits="userSpaceOnUse"><path
         style="clip-rule:evenodd"
         id="path100"
         d="M 1.5206e-5,0 H 1020.48 V 850.32 H 1.5206e-5 Z" /></clipPath><clipPath
       id="clipPath106"
       clipPathUnits="userSpaceOnUse"><path
         style="clip-rule:evenodd"
         id="path104"
         d="M 1.5206e-5,0 H 1020.48 V 850.32 H 1.5206e-5 Z" /></clipPath><clipPath
       id="clipPath110"
       clipPathUnits="userSpaceOnUse"><path
         style="clip-rule:evenodd"
         id="path108"
         d="M 1.5206e-5,0 H 1020.48 V 850.32 H 1.5206e-5 Z" /></clipPath><clipPath
       id="clipPath114"
       clipPathUnits="userSpaceOnUse"><path
         style="clip-rule:evenodd"
         id="path112"
         d="M 1.5206e-5,0 H 1020.48 V 850.32 H 1.5206e-5 Z" /></clipPath><clipPath
       id="clipPath118"
       clipPathUnits="userSpaceOnUse"><path
         style="clip-rule:evenodd"
         id="path116"
         d="M 1.5206e-5,0 H 1020.48 V 850.32 H 1.5206e-5 Z" /></clipPath><clipPath
       id="clipPath122"
       clipPathUnits="userSpaceOnUse"><path
         style="clip-rule:evenodd"
         id="path120"
         d="M 1.5206e-5,0 H 1020.48 V 850.32 H 1.5206e-5 Z" /></clipPath><clipPath
       id="clipPath126"
       clipPathUnits="userSpaceOnUse"><path
         style="clip-rule:evenodd"
         id="path124"
         d="M 1.5206e-5,0 H 1020.48 V 850.32 H 1.5206e-5 Z" /></clipPath><clipPath
       id="clipPath130"
       clipPathUnits="userSpaceOnUse"><path
         style="clip-rule:evenodd"
         id="path128"
         d="M 1.5206e-5,0 H 1020.48 V 850.32 H 1.5206e-5 Z" /></clipPath><clipPath
       id="clipPath134"
       clipPathUnits="userSpaceOnUse"><path
         style="clip-rule:evenodd"
         id="path132"
         d="M 1.5206e-5,0 H 1020.48 V 850.32 H 1.5206e-5 Z" /></clipPath><clipPath
       id="clipPath138"
       clipPathUnits="userSpaceOnUse"><path
         style="clip-rule:evenodd"
         id="path136"
         d="M 1.5206e-5,0 H 1020.48 V 850.32 H 1.5206e-5 Z" /></clipPath><clipPath
       id="clipPath142"
       clipPathUnits="userSpaceOnUse"><path
         style="clip-rule:evenodd"
         id="path140"
         d="M 1.5206e-5,0 H 1020.48 V 850.32 H 1.5206e-5 Z" /></clipPath><clipPath
       id="clipPath146"
       clipPathUnits="userSpaceOnUse"><path
         style="clip-rule:evenodd"
         id="path144"
         d="M 1.5206e-5,0 H 1020.48 V 850.32 H 1.5206e-5 Z" /></clipPath><clipPath
       id="clipPath150"
       clipPathUnits="userSpaceOnUse"><path
         style="clip-rule:evenodd"
         id="path148"
         d="M 1.5206e-5,0 H 1020.48 V 850.32 H 1.5206e-5 Z" /></clipPath><clipPath
       id="clipPath154"
       clipPathUnits="userSpaceOnUse"><path
         style="clip-rule:evenodd"
         id="path152"
         d="M 1.5206e-5,0 H 1020.48 V 850.32 H 1.5206e-5 Z" /></clipPath><clipPath
       id="clipPath158"
       clipPathUnits="userSpaceOnUse"><path
         style="clip-rule:evenodd"
         id="path156"
         d="M 1.5206e-5,0 H 1020.48 V 850.32 H 1.5206e-5 Z" /></clipPath><clipPath
       id="clipPath162"
       clipPathUnits="userSpaceOnUse"><path
         style="clip-rule:evenodd"
         id="path160"
         d="M -1.2207e-4,850.32 H 1020.48 V 6.1035e-5 H -6.1035e-5" /></clipPath><clipPath
       id="clipPath166"
       clipPathUnits="userSpaceOnUse"><path
         style="clip-rule:evenodd"
         id="path164"
         d="M 1.5206e-5,0 H 1020.48 V 850.32 H 1.5206e-5 Z" /></clipPath></defs><g
     transform="matrix(1.3333333,0,0,-1.3333333,0,1025.3333)"
     id="g10"><g
       transform="translate(-37,-37)"
       id="g12"><g
         id="g14" /><g
         id="g536"><g
           id="g534"
           clip-path="url(#clipPath18)"><g
             id="g172"><g
               id="g170"
               clip-path="url(#clipPath22)"><path
                 id="path168"
                 style="fill:#ffffff;fill-opacity:1;fill-rule:evenodd;stroke:none"
                 d="M 0,6.1035e-5 H 1020.48 V 850.32006 H 0 Z" /></g></g><path
             id="path174"
             style="fill:#0070c0;fill-opacity:0.14902003;fill-rule:evenodd;stroke:none"
             d="m 355.56,37.68 h 317.52 v 767.4 H 355.56 Z" /><g
             id="g182"><g
               id="g180"
               clip-path="url(#clipPath26)"><text
                 id="text178"
                 style="font-variant:normal;font-weight:bold;font-size:21.95999908px;font-family:Arial;-inkscape-font-specification:Arial-BoldMT;writing-mode:lr-tb;fill:#0070c0;fill-opacity:1;fill-rule:nonzero;stroke:none"
                 transform="matrix(1,0,0,-1,580.32,780.05)"><tspan
                   id="tspan176"
                   y="0"
                   x="0 12.25368 20.79612 33.005878 39.154678 52.572239 58.67712 72.182518">Training</tspan></text>
</g></g><path
             id="path184"
             style="fill:#c00000;fill-opacity:0.14902003;fill-rule:evenodd;stroke:none"
             d="m 37.92,37.68 h 317.64 v 767.4 H 37.92 Z" /><g
             id="g192"><g
               id="g190"
               clip-path="url(#clipPath30)"><text
                 id="text188"
                 style="font-variant:normal;font-weight:bold;font-size:21.95999908px;font-family:Arial;-inkscape-font-specification:Arial-BoldMT;writing-mode:lr-tb;fill:#c00000;fill-opacity:1;fill-rule:nonzero;stroke:none"
                 transform="matrix(1,0,0,-1,45.168,780.05)"><tspan
                   id="tspan186"
                   y="0"
                   x="0 6.1048799 19.52244 26.835119 39.088799 47.631241 59.841 73.25856 85.468323">Inference</tspan></text>
</g></g><path
             id="path194"
             style="fill:#e2f0d9;fill-opacity:1;fill-rule:evenodd;stroke:none"
             d="m 263.34,303.85 c 0,2.15 1.74,3.89 3.89,3.89 h 177.14 c 2.15,0 3.89,-1.74 3.89,-3.89 v -37.34 c 0,-2.15 -1.74,-3.89 -3.89,-3.89 H 267.23 c -2.15,0 -3.89,1.74 -3.89,3.89 z" /><path
             id="path196"
             style="fill:none;stroke:#000000;stroke-width:2.25;stroke-linecap:butt;stroke-linejoin:miter;stroke-miterlimit:10;stroke-dasharray:none;stroke-opacity:1"
             d="m 263.34,303.85 c 0,2.15 1.74,3.89 3.89,3.89 h 177.14 c 2.15,0 3.89,-1.74 3.89,-3.89 v -37.34 c 0,-2.15 -1.74,-3.89 -3.89,-3.89 H 267.23 c -2.15,0 -3.89,1.74 -3.89,3.89 z" /><g
             id="g204"><g
               id="g202"
               clip-path="url(#clipPath34)"><text
                 id="text200"
                 style="font-variant:normal;font-weight:bold;font-size:18px;font-family:Arial;-inkscape-font-specification:Arial-BoldMT;writing-mode:lr-tb;fill:#000000;fill-opacity:1;fill-rule:nonzero;stroke:none"
                 transform="matrix(1,0,0,-1,297.82,278.42)"><tspan
                   id="tspan198"
                   y="0"
                   x="0 5.0040002 16.056 27.054001 38.124001 44.118 48.330002 60.804001 71.802002 81.809998 92.807999 98.802002 108.81">Input Adapter</tspan></text>
</g></g><path
             id="path206"
             style="fill:#deebf7;fill-opacity:1;fill-rule:evenodd;stroke:none"
             d="m 263.34,140.64 c 0,2.15 1.75,3.9 3.9,3.9 h 177.12 c 2.15,0 3.9,-1.75 3.9,-3.9 V 103.2 c 0,-2.15 -1.75,-3.9 -3.9,-3.9 H 267.24 c -2.15,0 -3.9,1.75 -3.9,3.9 z" /><path
             id="path208"
             style="fill:none;stroke:#000000;stroke-width:2.25;stroke-linecap:butt;stroke-linejoin:miter;stroke-miterlimit:10;stroke-dasharray:none;stroke-opacity:1"
             d="m 263.34,140.64 c 0,2.15 1.75,3.9 3.9,3.9 h 177.12 c 2.15,0 3.9,-1.75 3.9,-3.9 V 103.2 c 0,-2.15 -1.75,-3.9 -3.9,-3.9 H 267.24 c -2.15,0 -3.9,1.75 -3.9,3.9 z" /><g
             id="g216"><g
               id="g214"
               clip-path="url(#clipPath38)"><text
                 id="text212"
                 style="font-variant:normal;font-weight:bold;font-size:18px;font-family:Arial;-inkscape-font-specification:Arial-BoldMT;writing-mode:lr-tb;fill:#000000;fill-opacity:1;fill-rule:nonzero;stroke:none"
                 transform="matrix(1,0,0,-1,297.82,115.18)"><tspan
                   id="tspan210"
                   y="0"
                   x="0 12.006 19.007999 28.926001 39.924 46.925999 57.924 67.931999 77.886002 87.893997 97.811996 108.81">Preprocessor</tspan></text>
</g></g><path
             id="path218"
             style="fill:#fff2cc;fill-opacity:1;fill-rule:evenodd;stroke:none"
             d="m 263.34,467.05 c 0,2.15 1.74,3.89 3.89,3.89 h 177.14 c 2.15,0 3.89,-1.74 3.89,-3.89 v -37.34 c 0,-2.15 -1.74,-3.89 -3.89,-3.89 H 267.23 c -2.15,0 -3.89,1.74 -3.89,3.89 z" /><path
             id="path220"
             style="fill:none;stroke:#000000;stroke-width:2.25;stroke-linecap:butt;stroke-linejoin:miter;stroke-miterlimit:10;stroke-dasharray:none;stroke-opacity:1"
             d="m 263.34,467.05 c 0,2.15 1.74,3.89 3.89,3.89 h 177.14 c 2.15,0 3.89,-1.74 3.89,-3.89 v -37.34 c 0,-2.15 -1.74,-3.89 -3.89,-3.89 H 267.23 c -2.15,0 -3.89,1.74 -3.89,3.89 z" /><g
             id="g228"><g
               id="g226"
               clip-path="url(#clipPath42)"><text
                 id="text224"
                 style="font-variant:normal;font-weight:bold;font-size:18px;font-family:Arial;-inkscape-font-specification:Arial-BoldMT;writing-mode:lr-tb;fill:#000000;fill-opacity:1;fill-rule:nonzero;stroke:none"
                 transform="matrix(1,0,0,-1,286.66,441.67)"><tspan
                   id="tspan222"
                   y="0"
                   x="0 12.996 23.993999 28.997999 38.646 48.653999 55.566002 65.573997 75.491997 80.496002">Universal </tspan></text>
</g></g><g
             id="g236"><g
               id="g234"
               clip-path="url(#clipPath46)"><text
                 id="text232"
                 style="font-variant:normal;font-weight:bold;font-size:18px;font-family:Arial;-inkscape-font-specification:Arial-BoldMT;writing-mode:lr-tb;fill:#000000;fill-opacity:1;fill-rule:nonzero;stroke:none"
                 transform="matrix(1,0,0,-1,372.72,441.67)"><tspan
                   id="tspan230"
                   y="0"
                   x="0 14.994 25.992001 37.062 47.07">Model</tspan></text>
</g></g><path
             id="path238"
             style="fill:#e2f0d9;fill-opacity:1;fill-rule:evenodd;stroke:none"
             d="m 263.34,630.36 c 0,2.15 1.75,3.9 3.9,3.9 h 177.12 c 2.15,0 3.9,-1.75 3.9,-3.9 v -37.44 c 0,-2.15 -1.75,-3.9 -3.9,-3.9 H 267.24 c -2.15,0 -3.9,1.75 -3.9,3.9 z" /><path
             id="path240"
             style="fill:none;stroke:#000000;stroke-width:2.25;stroke-linecap:butt;stroke-linejoin:miter;stroke-miterlimit:10;stroke-dasharray:none;stroke-opacity:1"
             d="m 263.34,630.36 c 0,2.15 1.75,3.9 3.9,3.9 h 177.12 c 2.15,0 3.9,-1.75 3.9,-3.9 v -37.44 c 0,-2.15 -1.75,-3.9 -3.9,-3.9 H 267.24 c -2.15,0 -3.9,1.75 -3.9,3.9 z" /><g
             id="g248"><g
               id="g246"
               clip-path="url(#clipPath50)"><text
                 id="text244"
                 style="font-variant:normal;font-weight:bold;font-size:18px;font-family:Arial;-inkscape-font-specification:Arial-BoldMT;writing-mode:lr-tb;fill:#000000;fill-opacity:1;fill-rule:nonzero;stroke:none"
                 transform="matrix(1,0,0,-1,290.38,604.92)"><tspan
                   id="tspan242"
                   y="0"
                   x="0 14.004 25.056 31.049999 42.048 53.118">Output</tspan></text>
</g></g><g
             id="g256"><g
               id="g254"
               clip-path="url(#clipPath54)"><text
                 id="text252"
                 style="font-variant:normal;font-weight:bold;font-size:18px;font-family:Arial;-inkscape-font-specification:Arial-BoldMT;writing-mode:lr-tb;fill:#000000;fill-opacity:1;fill-rule:nonzero;stroke:none"
                 transform="matrix(1,0,0,-1,353.76,604.92)"><tspan
                   id="tspan250"
                   y="0"
                   x="0 12.474 23.472 33.48 44.478001 50.472 60.48">Adapter</tspan></text>
</g></g><path
             id="path258"
             style="fill:#deebf7;fill-opacity:1;fill-rule:evenodd;stroke:none"
             d="m 263.34,713.28 c 0,2.15 1.75,3.9 3.9,3.9 h 177.12 c 2.15,0 3.9,-1.75 3.9,-3.9 v -37.44 c 0,-2.15 -1.75,-3.9 -3.9,-3.9 H 267.24 c -2.15,0 -3.9,1.75 -3.9,3.9 z" /><path
             id="path260"
             style="fill:none;stroke:#000000;stroke-width:2.25;stroke-linecap:butt;stroke-linejoin:miter;stroke-miterlimit:10;stroke-dasharray:none;stroke-opacity:1"
             d="m 263.34,713.28 c 0,2.15 1.75,3.9 3.9,3.9 h 177.12 c 2.15,0 3.9,-1.75 3.9,-3.9 v -37.44 c 0,-2.15 -1.75,-3.9 -3.9,-3.9 H 267.24 c -2.15,0 -3.9,1.75 -3.9,3.9 z" /><g
             id="g268"><g
               id="g266"
               clip-path="url(#clipPath58)"><text
                 id="text264"
                 style="font-variant:normal;font-weight:bold;font-size:18px;font-family:Arial;-inkscape-font-specification:Arial-BoldMT;writing-mode:lr-tb;fill:#000000;fill-opacity:1;fill-rule:nonzero;stroke:none"
                 transform="matrix(1,0,0,-1,292.78,687.89)"><tspan
                   id="tspan262"
                   y="0"
                   x="0 12.006 23.004 33.012001 39.006001 50.004002 57.006001 68.003998 78.012001 87.966003 97.973999 107.892 118.89">Postprocessor</tspan></text>
</g></g><path
             id="path270"
             style="fill:#d6dce5;fill-opacity:1;fill-rule:evenodd;stroke:none"
             d="m 460.02,467.05 c 0,2.15 1.74,3.89 3.89,3.89 h 177.26 c 2.15,0 3.89,-1.74 3.89,-3.89 v -37.34 c 0,-2.15 -1.74,-3.89 -3.89,-3.89 H 463.91 c -2.15,0 -3.89,1.74 -3.89,3.89 z" /><path
             id="path272"
             style="fill:none;stroke:#0070c0;stroke-width:2.25;stroke-linecap:butt;stroke-linejoin:miter;stroke-miterlimit:10;stroke-dasharray:none;stroke-opacity:1"
             d="m 460.02,467.05 c 0,2.15 1.74,3.89 3.89,3.89 h 177.26 c 2.15,0 3.89,-1.74 3.89,-3.89 v -37.34 c 0,-2.15 -1.74,-3.89 -3.89,-3.89 H 463.91 c -2.15,0 -3.89,1.74 -3.89,3.89 z" /><g
             id="g280"><g
               id="g278"
               clip-path="url(#clipPath62)"><text
                 id="text276"
                 style="font-variant:normal;font-weight:bold;font-size:18px;font-family:Arial;-inkscape-font-specification:Arial-BoldMT;writing-mode:lr-tb;fill:#0070c0;fill-opacity:1;fill-rule:nonzero;stroke:none"
                 transform="matrix(1,0,0,-1,514.99,441.67)"><tspan
                   id="tspan274"
                   y="0"
                   x="0 12.996 19.926001 24.93 30.924 40.931999 47.933998 52.938 63.936001">Criterion</tspan></text>
</g></g><path
             id="path282"
             style="fill:#ededed;fill-opacity:1;fill-rule:evenodd;stroke:none"
             d="m 66.06,466.92 c 0,2.15 1.746,3.9 3.9,3.9 H 247.2 c 2.15,0 3.9,-1.75 3.9,-3.9 v -37.44 c 0,-2.15 -1.75,-3.9 -3.9,-3.9 H 69.96 c -2.154,0 -3.9,1.75 -3.9,3.9 z" /><path
             id="path284"
             style="fill:none;stroke:#c00000;stroke-width:2.25;stroke-linecap:butt;stroke-linejoin:miter;stroke-miterlimit:10;stroke-dasharray:none;stroke-opacity:1"
             d="m 66.06,466.92 c 0,2.15 1.746,3.9 3.9,3.9 H 247.2 c 2.15,0 3.9,-1.75 3.9,-3.9 v -37.44 c 0,-2.15 -1.75,-3.9 -3.9,-3.9 H 69.96 c -2.154,0 -3.9,1.75 -3.9,3.9 z" /><g
             id="g292"><g
               id="g290"
               clip-path="url(#clipPath66)"><text
                 id="text288"
                 style="font-variant:normal;font-weight:bold;font-size:18px;font-family:Arial;-inkscape-font-specification:Arial-BoldMT;writing-mode:lr-tb;fill:#c00000;fill-opacity:1;fill-rule:nonzero;stroke:none"
                 transform="matrix(1,0,0,-1,115.56,441.5)"><tspan
                   id="tspan286"
                   y="0"
                   x="0 14.004 24.011999 35.009998 45.018002 51.966 61.973999 67.968002 78.966003">Generator</tspan></text>
</g></g><g
             id="g300"><g
               id="g298"
               clip-path="url(#clipPath70)"><text
                 id="text296"
                 style="font-variant:normal;font-weight:normal;font-size:18px;font-family:ArialMT;-inkscape-font-specification:ArialMT;writing-mode:lr-tb;fill:#000000;fill-opacity:1;fill-rule:nonzero;stroke:none"
                 transform="matrix(1,0,0,-1,313.7,53.088)"><tspan
                   id="tspan294"
                   y="0"
                   x="0 12.996 23.004 35.585999 41.094002 54.09 64.098 69.101997 79.110001">Raw Data </tspan></text>
</g></g><path
             id="path302"
             style="fill:none;stroke:#0070c0;stroke-width:1.5;stroke-linecap:butt;stroke-linejoin:miter;stroke-miterlimit:10;stroke-dasharray:none;stroke-opacity:1"
             d="m 448.26,121.89 h 104.25 v 53.13" /><path
             id="path304"
             style="fill:#c00000;fill-opacity:1;fill-rule:nonzero;stroke:none"
             d="m 320.13,226.01 v 35.44 h -1.5 v -35.44 z m 4.83,29.92 -5.58,6.69 -5.58,-6.69 c -0.26,-0.32 -0.22,-0.79 0.1,-1.06 0.32,-0.26 0.79,-0.22 1.06,0.1 l 5,6 h -1.16 l 5,-6 c 0.27,-0.32 0.74,-0.36 1.06,-0.1 0.32,0.27 0.36,0.74 0.1,1.06 z" /><path
             id="path306"
             style="fill:#c00000;fill-opacity:1;fill-rule:nonzero;stroke:none"
             d="m 320.13,388.18 v 36.47 h -1.5 v -36.47 z m 4.83,30.95 -5.58,6.69 -5.58,-6.69 c -0.26,-0.32 -0.22,-0.79 0.1,-1.06 0.32,-0.26 0.79,-0.22 1.06,0.1 l 5,6 h -1.16 l 5,-6 c 0.27,-0.32 0.74,-0.36 1.06,-0.1 0.32,0.27 0.36,0.74 0.1,1.06 z" /><path
             id="path308"
             style="fill:#c00000;fill-opacity:1;fill-rule:nonzero;stroke:none"
             d="m 320.13,552.18 v 35.67 h -1.5 v -35.67 z m 4.83,30.15 -5.58,6.69 -5.58,-6.69 c -0.26,-0.32 -0.22,-0.79 0.1,-1.06 0.32,-0.26 0.79,-0.22 1.06,0.1 l 5,6 h -1.16 l 5,-6 c 0.27,-0.32 0.74,-0.36 1.06,-0.1 0.32,0.27 0.36,0.74 0.1,1.06 z" /><g
             id="g314"><g
               id="g312"
               clip-path="url(#clipPath74)"><path
                 id="path310"
                 style="fill:#c00000;fill-opacity:1;fill-rule:nonzero;stroke:none"
                 d="m 157.83,337.26 v -52.85 h 104.33 v 1.5 H 158.58 l 0.75,-0.75 v 52.1 z m 98.81,-57.67 6.69,5.57 -6.69,5.58 c -0.32,0.27 -0.79,0.22 -1.06,-0.1 -0.26,-0.31 -0.22,-0.79 0.1,-1.05 l 6,-5 v 1.15 l -6,-5 c -0.32,-0.26 -0.36,-0.74 -0.1,-1.06 0.27,-0.31 0.74,-0.36 1.06,-0.09 z" /></g></g><path
             id="path316"
             style="fill:#c00000;fill-opacity:1;fill-rule:nonzero;stroke:none"
             d="m 159.33,501.3 v -29.31 h -1.5 v 29.31 z m 4.83,-23.79 -5.58,-6.69 -5.58,6.69 c -0.26,0.32 -0.22,0.8 0.1,1.06 0.32,0.27 0.79,0.22 1.06,-0.1 l 5,-6 H 158 l 5,6 c 0.27,0.32 0.74,0.37 1.06,0.1 0.32,-0.26 0.36,-0.74 0.1,-1.06 z" /><path
             id="path318"
             style="fill:#c00000;fill-opacity:1;fill-rule:nonzero;stroke:none"
             d="M 320.13,75.173 V 99.09 h -1.5 V 75.173 Z m 4.83,18.397 -5.58,6.69 -5.58,-6.69 c -0.26,-0.318 -0.22,-0.791 0.1,-1.056 0.32,-0.265 0.79,-0.222 1.06,0.096 l 5,6 h -1.16 l 5,-6 c 0.27,-0.318 0.74,-0.361 1.06,-0.096 0.32,0.265 0.36,0.738 0.1,1.056 z" /><g
             id="g326"><g
               id="g324"
               clip-path="url(#clipPath78)"><text
                 id="text322"
                 style="font-variant:normal;font-weight:normal;font-size:18px;font-family:ArialMT;-inkscape-font-specification:ArialMT;writing-mode:lr-tb;fill:#0070c0;fill-opacity:1;fill-rule:nonzero;stroke:none"
                 transform="matrix(1,0,0,-1,510.07,204.82)"><tspan
                   id="tspan320"
                   y="0"
                   x="0 12.006 18 28.007999 37.007999 46.925999 55.925999 64.926003 74.933998 84.851997">Processed </tspan></text>
</g></g><g
             id="g334"><g
               id="g332"
               clip-path="url(#clipPath82)"><text
                 id="text330"
                 style="font-variant:normal;font-weight:normal;font-size:18.02400017px;font-family:ArialMT;-inkscape-font-specification:ArialMT;writing-mode:lr-tb;fill:#0070c0;fill-opacity:1;fill-rule:nonzero;stroke:none"
                 transform="matrix(1,0,0,-1,527.47,183.22)"><tspan
                   id="tspan328"
                   y="0"
                   x="0 9.1201439 19.087416 25.089409 35.038654 45.005928">Target</tspan></text>
</g></g><g
             id="g342"><g
               id="g340"
               clip-path="url(#clipPath86)"><text
                 id="text338"
                 style="font-variant:normal;font-weight:normal;font-size:18px;font-family:ArialMT;-inkscape-font-specification:ArialMT;writing-mode:lr-tb;fill:#000000;fill-opacity:1;fill-rule:nonzero;stroke:none"
                 transform="matrix(1,0,0,-1,335.76,204.82)"><tspan
                   id="tspan336"
                   y="0"
                   x="0 5.0040002 15.012 24.966 34.973999 39.978001">Input </tspan></text>
</g></g><g
             id="g350"><g
               id="g348"
               clip-path="url(#clipPath90)"><text
                 id="text346"
                 style="font-variant:normal;font-weight:normal;font-size:18.02400017px;font-family:ArialMT;-inkscape-font-specification:ArialMT;writing-mode:lr-tb;fill:#000000;fill-opacity:1;fill-rule:nonzero;stroke:none"
                 transform="matrix(1,0,0,-1,254.76,183.22)"><tspan
                   id="tspan344"
                   y="0"
                   x="0 6.0019922 11.012664 21.034008 30.046007 39.959209 49.926479 58.93848 63.949154">(tokens, </tspan></text>
</g></g><g
             id="g358"><g
               id="g356"
               clip-path="url(#clipPath94)"><text
                 id="text354"
                 style="font-variant:normal;font-weight:normal;font-size:18.02400017px;font-family:ArialMT;-inkscape-font-specification:ArialMT;writing-mode:lr-tb;fill:#000000;fill-opacity:1;fill-rule:nonzero;stroke:none"
                 transform="matrix(1,0,0,-1,323.76,183.22)"><tspan
                   id="tspan352"
                   y="0"
                   x="0 15.013992 24.96324">Mel</tspan></text>
</g></g><g
             id="g366"><g
               id="g364"
               clip-path="url(#clipPath98)"><text
                 id="text362"
                 style="font-variant:normal;font-weight:normal;font-size:18.02400017px;font-family:ArialMT;-inkscape-font-specification:ArialMT;writing-mode:lr-tb;fill:#000000;fill-opacity:1;fill-rule:nonzero;stroke:none"
                 transform="matrix(1,0,0,-1,352.68,183.22)"><tspan
                   id="tspan360"
                   y="0"
                   x="0">-</tspan></text>
</g></g><g
             id="g374"><g
               id="g372"
               clip-path="url(#clipPath102)"><text
                 id="text370"
                 style="font-variant:normal;font-weight:normal;font-size:18.02400017px;font-family:ArialMT;-inkscape-font-specification:ArialMT;writing-mode:lr-tb;fill:#000000;fill-opacity:1;fill-rule:nonzero;stroke:none"
                 transform="matrix(1,0,0,-1,358.68,183.22)"><tspan
                   id="tspan368"
                   y="0"
                   x="0 5.0106721 15.032016 25.05336 34.984585 43.996586">fbanks</tspan></text>
</g></g><g
             id="g382"><g
               id="g380"
               clip-path="url(#clipPath106)"><text
                 id="text378"
                 style="font-variant:normal;font-weight:normal;font-size:18.02400017px;font-family:ArialMT;-inkscape-font-specification:ArialMT;writing-mode:lr-tb;fill:#000000;fill-opacity:1;fill-rule:nonzero;stroke:none"
                 transform="matrix(1,0,0,-1,411.62,183.22)"><tspan
                   id="tspan376"
                   y="0"
                   x="0 5.0106721 10.18356 20.150831 25.161505 34.173504 39.184177">, etc.)</tspan></text>
</g></g><g
             id="g390"><g
               id="g388"
               clip-path="url(#clipPath110)"><text
                 id="text386"
                 style="font-variant:normal;font-weight:normal;font-size:18px;font-family:ArialMT;-inkscape-font-specification:ArialMT;writing-mode:lr-tb;fill:#c00000;fill-opacity:1;fill-rule:nonzero;stroke:none"
                 transform="matrix(1,0,0,-1,108.53,367.01)"><tspan
                   id="tspan384"
                   y="0"
                   x="0 5.0040002 15.012 20.016001 30.024 36.018002 51.012001 60.966 70.973999 74.879997 84.888 89.891998 99.846001">Intermediate </tspan></text>
</g></g><g
             id="g398"><g
               id="g396"
               clip-path="url(#clipPath114)"><text
                 id="text394"
                 style="font-variant:normal;font-weight:normal;font-size:18px;font-family:ArialMT;-inkscape-font-specification:ArialMT;writing-mode:lr-tb;fill:#c00000;fill-opacity:1;fill-rule:nonzero;stroke:none"
                 transform="matrix(1,0,0,-1,138.53,345.41)"><tspan
                   id="tspan392"
                   y="0"
                   x="0 5.0040002 15.012 24.966 34.973999">Input</tspan></text>
</g></g><g
             id="g406"><g
               id="g404"
               clip-path="url(#clipPath118)"><text
                 id="text402"
                 style="font-variant:normal;font-weight:normal;font-size:18px;font-family:ArialMT;-inkscape-font-specification:ArialMT;writing-mode:lr-tb;fill:#c00000;fill-opacity:1;fill-rule:nonzero;stroke:none"
                 transform="matrix(1,0,0,-1,108.6,531.07)"><tspan
                   id="tspan400"
                   y="0"
                   x="0 5.0040002 15.012 20.016001 30.024 36.018002 51.048 61.056 71.064003 74.970001 84.977997 89.982002 99.989998">Intermediate </tspan></text>
</g></g><g
             id="g414"><g
               id="g412"
               clip-path="url(#clipPath122)"><text
                 id="text410"
                 style="font-variant:normal;font-weight:normal;font-size:18px;font-family:ArialMT;-inkscape-font-specification:ArialMT;writing-mode:lr-tb;fill:#c00000;fill-opacity:1;fill-rule:nonzero;stroke:none"
                 transform="matrix(1,0,0,-1,131.54,509.47)"><tspan
                   id="tspan408"
                   y="0"
                   x="0 14.004 24.011999 29.016001 39.023998 48.959999">Output</tspan></text>
</g></g><g
             id="g422"><g
               id="g420"
               clip-path="url(#clipPath126)"><text
                 id="text418"
                 style="font-variant:normal;font-weight:normal;font-size:18px;font-family:ArialMT;-inkscape-font-specification:ArialMT;writing-mode:lr-tb;fill:#000000;fill-opacity:1;fill-rule:nonzero;stroke:none"
                 transform="matrix(1,0,0,-1,335.81,367.01)"><tspan
                   id="tspan416"
                   y="0"
                   x="0 5.0040002 15.012 24.966 34.973999 39.978001">Input </tspan></text>
</g></g><g
             id="g430"><g
               id="g428"
               clip-path="url(#clipPath130)"><text
                 id="text426"
                 style="font-variant:normal;font-weight:normal;font-size:18px;font-family:ArialMT;-inkscape-font-specification:ArialMT;writing-mode:lr-tb;fill:#000000;fill-opacity:1;fill-rule:nonzero;stroke:none"
                 transform="matrix(1,0,0,-1,267.38,345.41)"><tspan
                   id="tspan424"
                   y="0"
                   x="0 12.006 27 37.007999 46.925999 56.933998 66.851997 70.848 80.765999 90.774002 95.994003 108 117.954 127.962 137.88 147.888 157.806 166.806">Embedding Sequence</tspan></text>
</g></g><g
             id="g438"><g
               id="g436"
               clip-path="url(#clipPath134)"><text
                 id="text434"
                 style="font-variant:normal;font-weight:normal;font-size:18px;font-family:ArialMT;-inkscape-font-specification:ArialMT;writing-mode:lr-tb;fill:#0070c0;fill-opacity:1;fill-rule:nonzero;stroke:none"
                 transform="matrix(1,0,0,-1,525.55,531.07)"><tspan
                   id="tspan432"
                   y="0"
                   x="0 14.04 24.048 29.052 39.060001 49.068001">Output</tspan></text>
</g></g><g
             id="g446"><g
               id="g444"
               clip-path="url(#clipPath138)"><text
                 id="text442"
                 style="font-variant:normal;font-weight:normal;font-size:18px;font-family:DengXian;-inkscape-font-specification:DengXian;writing-mode:lr-tb;fill:#0070c0;fill-opacity:1;fill-rule:nonzero;stroke:none"
                 transform="matrix(1,0,0,-1,472.99,510.07)"><tspan
                   id="tspan440"
                   y="0"
                   x="0">（</tspan></text>
</g></g><g
             id="g454"><g
               id="g452"
               clip-path="url(#clipPath142)"><text
                 id="text450"
                 style="font-variant:normal;font-weight:normal;font-size:18px;font-family:ArialMT;-inkscape-font-specification:ArialMT;writing-mode:lr-tb;fill:#0070c0;fill-opacity:1;fill-rule:nonzero;stroke:none"
                 transform="matrix(1,0,0,-1,490.99,510.07)"><tspan
                   id="tspan448"
                   y="0"
                   x="0 10.008 16.002001 25.92 35.928001 45.846001 55.854 59.759998 63.756001 67.68 72.683998 76.68 86.688004 95.688004 100.692 105.948 115.956 120.96 129.96001 134.964">probabilities, etc.)</tspan></text>
</g></g><g
             id="g462"><g
               id="g460"
               clip-path="url(#clipPath146)"><text
                 id="text458"
                 style="font-variant:normal;font-weight:normal;font-size:18px;font-family:ArialMT;-inkscape-font-specification:ArialMT;writing-mode:lr-tb;fill:#000000;fill-opacity:1;fill-rule:nonzero;stroke:none"
                 transform="matrix(1,0,0,-1,328.73,531.07)"><tspan
                   id="tspan456"
                   y="0"
                   x="0 14.004 24.011999 29.016001 39.023998 48.959999">Output</tspan></text>
</g></g><g
             id="g470"><g
               id="g468"
               clip-path="url(#clipPath150)"><text
                 id="text466"
                 style="font-variant:normal;font-weight:normal;font-size:18px;font-family:ArialMT;-inkscape-font-specification:ArialMT;writing-mode:lr-tb;fill:#000000;fill-opacity:1;fill-rule:nonzero;stroke:none"
                 transform="matrix(1,0,0,-1,267.41,509.47)"><tspan
                   id="tspan464"
                   y="0"
                   x="0 12.006 27 37.007999 46.925999 56.933998 66.851997 70.848 80.765999 90.774002 95.994003 108 117.954 127.962 137.88 147.888 157.806 166.806">Embedding Sequence</tspan></text>
</g></g><path
             id="path472"
             style="fill:#0070c0;fill-opacity:1;fill-rule:nonzero;stroke:none"
             d="m 553.29,225.99 v 198.66 h -1.5 V 225.99 Z m 4.83,193.14 -5.58,6.69 -5.58,-6.69 c -0.26,-0.32 -0.22,-0.79 0.1,-1.06 0.32,-0.26 0.79,-0.22 1.06,0.1 l 5,6 h -1.16 l 5,-6 c 0.27,-0.32 0.74,-0.36 1.06,-0.1 0.32,0.27 0.36,0.74 0.1,1.06 z" /><path
             id="path474"
             style="fill:#0070c0;fill-opacity:1;fill-rule:nonzero;stroke:none"
             d="m 553.29,501.3 v -29.14 h -1.5 v 29.14 z m 4.83,-23.62 -5.58,-6.69 -5.58,6.69 c -0.26,0.32 -0.22,0.79 0.1,1.06 0.32,0.26 0.79,0.22 1.06,-0.1 v 0 l 5,-6 h -1.16 l 5,6 c 0.27,0.32 0.74,0.36 1.06,0.1 0.32,-0.27 0.36,-0.74 0.1,-1.06 z" /><path
             id="path476"
             style="fill:#c00000;fill-opacity:1;fill-rule:nonzero;stroke:none"
             d="M 262.19,695.37 H 86.43 V 471.64 h 1.5 v 222.98 l -0.75,-0.75 h 175.01 z m -5.52,-6.33 6.7,5.58 -6.7,5.58 c -0.31,0.26 -0.79,0.22 -1.05,-0.1 -0.27,-0.32 -0.22,-0.79 0.09,-1.06 l 6,-5 v 1.16 l -6,-5 v 0 c -0.31,-0.27 -0.36,-0.74 -0.09,-1.06 0.26,-0.32 0.74,-0.36 1.05,-0.1 z" /><path
             id="path478"
             style="fill:none;stroke:#c00000;stroke-width:1.5;stroke-linecap:butt;stroke-linejoin:miter;stroke-miterlimit:10;stroke-dasharray:none;stroke-opacity:1"
             d="m 158.58,388.1 v 37.48" /><path
             id="path480"
             style="fill:none;stroke:#c00000;stroke-width:1.5;stroke-linecap:butt;stroke-linejoin:miter;stroke-miterlimit:10;stroke-dasharray:none;stroke-opacity:1"
             d="m 319.38,144.48 v 30.54" /><path
             id="path482"
             style="fill:none;stroke:#c00000;stroke-width:1.5;stroke-linecap:butt;stroke-linejoin:miter;stroke-miterlimit:10;stroke-dasharray:none;stroke-opacity:1"
             d="m 319.38,307.76 v 29.5" /><path
             id="path484"
             style="fill:none;stroke:#c00000;stroke-width:1.5;stroke-linecap:butt;stroke-linejoin:miter;stroke-miterlimit:10;stroke-dasharray:none;stroke-opacity:1"
             d="M 319.38,470.99 V 501.3" /><path
             id="path486"
             style="fill:none;stroke:#c00000;stroke-width:1.5;stroke-linecap:butt;stroke-linejoin:miter;stroke-miterlimit:10;stroke-dasharray:none;stroke-opacity:1"
             d="M 263.33,611.58 H 158.58 v -59.43" /><g
             id="g494"><g
               id="g492"
               clip-path="url(#clipPath154)"><text
                 id="text490"
                 style="font-variant:normal;font-weight:normal;font-size:18px;font-family:ArialMT;-inkscape-font-specification:ArialMT;writing-mode:lr-tb;fill:#c00000;fill-opacity:1;fill-rule:nonzero;stroke:none"
                 transform="matrix(1,0,0,-1,98.016,705.34)"><tspan
                   id="tspan488"
                   y="0"
                   x="0 10.998 14.994 25.002001 34.919998 38.916">Final </tspan></text>
</g></g><g
             id="g502"><g
               id="g500"
               clip-path="url(#clipPath158)"><text
                 id="text498"
                 style="font-variant:normal;font-weight:normal;font-size:18px;font-family:ArialMT;-inkscape-font-specification:ArialMT;writing-mode:lr-tb;fill:#c00000;fill-opacity:1;fill-rule:nonzero;stroke:none"
                 transform="matrix(1,0,0,-1,142.06,705.34)"><tspan
                   id="tspan496"
                   y="0"
                   x="0 14.004 24.011999 29.016001 39.023998 48.959999">Output</tspan></text>
</g></g><g
             id="g508"><g
               id="g506"
               clip-path="url(#clipPath162)"><path
                 id="path504"
                 style="fill:none;stroke:#0070c0;stroke-width:1.5;stroke-linecap:butt;stroke-linejoin:miter;stroke-miterlimit:10;stroke-dasharray:none;stroke-opacity:1"
                 d="m 552.51,552.15 v 59.43 H 448.26" /></g></g><g
             id="g516"><g
               id="g514"
               clip-path="url(#clipPath166)"><text
                 id="text512"
                 style="font-variant:normal;font-weight:normal;font-size:18px;font-family:ArialMT;-inkscape-font-specification:ArialMT;writing-mode:lr-tb;fill:#000000;fill-opacity:1;fill-rule:nonzero;stroke:none"
                 transform="matrix(1,0,0,-1,308.02,756.67)"><tspan
                   id="tspan510"
                   y="0"
                   x="0 12.996 22.914 35.514 41.021999 55.026001 65.033997 70.038002 80.045998 89.982002">Raw Output</tspan></text>
</g></g><path
             id="path518"
             style="fill:#c00000;fill-opacity:1;fill-rule:nonzero;stroke:none"
             d="m 320.13,716.53 v 26.6 h -1.5 v -26.6 z m 4.83,21.08 -5.58,6.69 -5.58,-6.69 c -0.26,-0.32 -0.22,-0.79 0.1,-1.06 0.32,-0.26 0.79,-0.22 1.06,0.1 l 5,6 h -1.16 l 5,-6 c 0.27,-0.32 0.74,-0.36 1.06,-0.1 0.32,0.27 0.36,0.74 0.1,1.06 z" /><path
             id="path520"
             style="fill:#0070c0;fill-opacity:1;fill-rule:nonzero;stroke:none"
             d="m 394.05,225.77 v 35.44 h -1.5 v -35.44 z m 4.83,29.92 -5.58,6.69 -5.58,-6.69 c -0.26,-0.32 -0.22,-0.79 0.1,-1.06 0.32,-0.26 0.79,-0.22 1.06,0.1 l 5,6 h -1.16 l 5,-6 c 0.27,-0.32 0.74,-0.36 1.06,-0.1 0.32,0.27 0.36,0.74 0.1,1.06 z" /><path
             id="path522"
             style="fill:none;stroke:#0070c0;stroke-width:1.5;stroke-linecap:butt;stroke-linejoin:miter;stroke-miterlimit:10;stroke-dasharray:none;stroke-opacity:1"
             d="M 393.3,144.36 V 174.9" /><path
             id="path524"
             style="fill:none;stroke:#0070c0;stroke-width:1.5;stroke-linecap:butt;stroke-linejoin:miter;stroke-miterlimit:10;stroke-dasharray:none;stroke-opacity:1"
             d="M 393.3,470.99 V 501.3" /><path
             id="path526"
             style="fill:#0070c0;fill-opacity:1;fill-rule:nonzero;stroke:none"
             d="m 394.05,552.18 v 35.67 h -1.5 v -35.67 z m 4.83,30.15 -5.58,6.69 -5.58,-6.69 c -0.26,-0.32 -0.22,-0.79 0.1,-1.06 0.32,-0.26 0.79,-0.22 1.06,0.1 l 5,6 h -1.16 l 5,-6 c 0.27,-0.32 0.74,-0.36 1.06,-0.1 0.32,0.27 0.36,0.74 0.1,1.06 z" /><path
             id="path528"
             style="fill:#0070c0;fill-opacity:1;fill-rule:nonzero;stroke:none"
             d="m 394.05,388.18 v 36.47 h -1.5 v -36.47 z m 4.83,30.95 -5.58,6.69 -5.58,-6.69 c -0.26,-0.32 -0.22,-0.79 0.1,-1.06 0.32,-0.26 0.79,-0.22 1.06,0.1 l 5,6 h -1.16 l 5,-6 c 0.27,-0.32 0.74,-0.36 1.06,-0.1 0.32,0.27 0.36,0.74 0.1,1.06 z" /><path
             id="path530"
             style="fill:none;stroke:#0070c0;stroke-width:1.5;stroke-linecap:butt;stroke-linejoin:miter;stroke-miterlimit:10;stroke-dasharray:none;stroke-opacity:1"
             d="m 393.3,307.76 v 29.5" /><path
             id="path532"
             style="fill:#0070c0;fill-opacity:1;fill-rule:nonzero;stroke:none"
             d="M 394.05,73.493 V 97.41 h -1.5 V 73.493 Z m 4.83,18.397 -5.58,6.692 -5.58,-6.692 c -0.26,-0.318 -0.22,-0.791 0.1,-1.056 0.32,-0.265 0.79,-0.222 1.06,0.096 l 5,6 h -1.16 l 5,-6 c 0.27,-0.318 0.74,-0.361 1.06,-0.096 0.32,0.265 0.36,0.738 0.1,1.056 z" /></g></g></g></g></svg>