<?xml version="1.0" encoding="UTF-8" standalone="no"?>
<svg
   version="1.1"
   id="svg2"
   width="419.42245"
   height="123.123"
   viewBox="0 0 419.42245 123.123"
   xmlns="http://www.w3.org/2000/svg"
   xmlns:svg="http://www.w3.org/2000/svg">
  <defs
     id="defs6">
    <clipPath
       clipPathUnits="userSpaceOnUse"
       id="clipPath18">
      <path
         d="M 0,2.2888e-5 H 393.12 V 114.72002 H 0 Z"
         clip-rule="evenodd"
         id="path16" />
    </clipPath>
    <clipPath
       clipPathUnits="userSpaceOnUse"
       id="clipPath373">
      <path
         d="m -223.77999,27.48 h 393.12 V -87.24 h -393.12 z"
         clip-rule="evenodd"
         id="path375"
         style="stroke-width:0.999998" />
    </clipPath>
    <clipPath
       clipPathUnits="userSpaceOnUse"
       id="clipPath377">
      <path
         d="m -223.77999,27.48 h 393.12 V -87.24 h -393.12 z"
         clip-rule="evenodd"
         id="path379"
         style="stroke-width:0.999998" />
    </clipPath>
    <clipPath
       clipPathUnits="userSpaceOnUse"
       id="clipPath381">
      <path
         d="m -223.77999,27.48 h 393.12 V -87.24 h -393.12 z"
         clip-rule="evenodd"
         id="path383"
         style="stroke-width:0.999998" />
    </clipPath>
    <clipPath
       clipPathUnits="userSpaceOnUse"
       id="clipPath389">
      <path
         d="M -36.143994,27.48 H 356.97601 V -87.24 H -36.143994 Z"
         clip-rule="evenodd"
         id="path391"
         style="stroke-width:0.999998" />
    </clipPath>
    <clipPath
       clipPathUnits="userSpaceOnUse"
       id="clipPath393">
      <path
         d="M -36.143994,27.48 H 356.97601 V -87.24 H -36.143994 Z"
         clip-rule="evenodd"
         id="path395"
         style="stroke-width:0.999998" />
    </clipPath>
    <clipPath
       clipPathUnits="userSpaceOnUse"
       id="clipPath397">
      <path
         d="M -36.143994,27.48 H 356.97601 V -87.24 H -36.143994 Z"
         clip-rule="evenodd"
         id="path399"
         style="stroke-width:0.999998" />
    </clipPath>
  </defs>
  <g
     id="g10"
     transform="matrix(1.3333333,0,0,-1.3333333,-54.323124,131.86012)">
    <path
       d="m 66.394454,-36.599063 q 0,-10.838953 -6.615985,-17.454937 -6.569062,-6.662907 -17.408016,-6.662907 -5.349093,0 -10.228968,2.017641 -4.832954,2.017641 -8.399016,5.771391 -4.129125,4.222968 -6.287531,9.618984 -2.158407,5.396016 -2.158407,11.308172 0,10.745109 6.475219,17.454938 6.522141,6.6629059 16.938797,6.6629059 11.777391,0 19.707188,-8.2113279 7.976719,-8.25825 7.976719,-20.50486 z M 42.933516,-70.335891 q 15.671906,0 24.962438,9.149766 9.290531,9.102843 9.290531,24.399375 0,8.211328 -3.049922,15.484219 -3.003,7.225968 -8.586703,12.5750622 -5.396016,5.0675625 -12.481219,7.78903129 -7.085203,2.67454691 -15.108844,2.67454691 -14.968078,0 -24.164766,-9.1966876 -9.1966872,-9.1966878 -9.1966872,-24.1647658 0,-8.352094 2.9560781,-15.624984 2.9560781,-7.319813 8.4928591,-12.621985 5.25525,-5.020641 12.24661,-7.742109 6.991359,-2.721469 14.639625,-2.721469 z"
       id="path327"
       transform="matrix(1,0,0,-1,36.144,27.48)"
       style="fill:#295774"
       clip-path="url(#clipPath397)" />
    <path
       d="m 85.062226,0 9.009,-68.693625 h 38.522864 l -1.21997,9.712828 h -27.8716 l -2.20533,17.26725 h 27.77776 l -1.2669,9.618984 H 99.93646 L 95.807335,0 Z"
       id="path329"
       transform="matrix(1,0,0,-1,36.144,27.48)"
       style="fill:#295774"
       clip-path="url(#clipPath393)" />
    <path
       d="M 122.50551,0 162.29526,-71.415094 187.39846,0 h -11.16741 l -5.5837,-16.234969 H 143.2919 L 134.23598,0 Z m 25.1032,-25.384735 h 20.08256 l -5.30217,-16.985718 q -0.37537,-1.219969 -0.79767,-3.23761 -0.4223,-2.01764 -1.03228,-5.302172 -1.03228,2.439938 -2.06457,4.645266 -0.98535,2.158406 -1.97071,4.082203 z"
       id="path331"
       transform="matrix(1,0,0,-1,36.144,27.48)"
       style="fill:#295774"
       clip-path="url(#clipPath389)" />
    <path
       d="m -0.84459376,-11.824313 7.55442196,-6.240609 q 2.8153125,5.630625 6.0529218,8.1644063 3.237609,2.4868594 7.601344,2.4868594 5.442937,0 8.821312,-3.1906877 3.378375,-3.190687 3.378375,-8.305172 0,-3.612984 -1.783031,-6.099844 -1.783031,-2.533781 -6.287531,-5.161406 -0.938438,-0.563062 -2.768391,-1.595344 -7.695187,-4.26989 -10.369734,-7.225968 -1.9237971,-2.111485 -2.9091564,-4.879875 -0.9384375,-2.768391 -0.9384375,-6.006 0,-9.055922 5.8183129,-14.733469 5.818312,-5.724469 15.202687,-5.724469 6.334453,0 11.073563,2.580703 4.786031,2.580703 7.882875,7.695188 l -6.569063,6.052921 q -2.299172,-3.75375 -5.114484,-5.583703 -2.815313,-1.829953 -6.287531,-1.829953 -5.067563,0 -8.211329,2.956078 -3.143765,2.956078 -3.143765,7.648266 0,5.630625 9.055922,10.5105 2.25225,1.173047 3.425297,1.876875 6.944437,4.035281 9.806672,8.399016 2.909156,4.316812 2.909156,10.604344 0,9.7597497 -6.287531,15.5311403 -6.287532,5.7244688 -17.079563,5.7244688 -7.319813,0 -12.5281408,-3.378375 -5.1614063,-3.378375 -8.30517196,-10.2758911 z"
       id="path334"
       transform="matrix(1,0,0,-1,223.78,27.48)"
       style="fill:#da6f33"
       clip-path="url(#clipPath381)" />
    <path
       d="M 56.16063,20.927156 H 45.603209 L 63.574287,-7.2259688 50.670771,-44.481938 h 10.5105 l 6.615985,21.396375 q 0.375375,1.173047 0.703828,3.284532 0.375375,2.111484 0.75075,5.208328 0.703828,-1.970719 1.595343,-3.941438 0.938438,-1.970719 2.158407,-3.941437 l 12.856594,-22.00636 h 11.26125 z"
       id="path336"
       transform="matrix(1,0,0,-1,223.78,27.48)"
       style="fill:#da6f33"
       clip-path="url(#clipPath377)" />
    <path
       d="m 98.96542,-13.091203 q 2.48686,3.4722186 5.48986,5.3021717 3.003,1.8299531 6.24061,1.8299531 3.19069,0 5.11448,-1.4076562 1.9238,-1.4545782 1.9238,-3.8006716 0,-3.331453 -7.13212,-7.272891 -0.28154,-0.140766 -0.37538,-0.187688 -6.80367,-3.847593 -8.96208,-6.615984 -2.111482,-2.815312 -2.111482,-6.75675 0,-6.287531 4.645262,-10.182047 4.64527,-3.941437 12.10585,-3.941437 4.55142,0 8.39901,1.689187 3.8476,1.689188 7.22597,5.114484 l -6.24061,6.475219 q -2.1584,-2.674547 -4.83295,-4.082203 -2.67455,-1.407656 -5.63063,-1.407656 -2.39301,0 -4.0822,1.454578 -1.68919,1.454578 -1.68919,3.425297 0,3.237609 6.006,6.193687 2.20533,1.126125 3.4253,1.783032 5.20833,2.862234 7.17905,5.724468 1.97072,2.815313 1.97072,6.99136 0,6.6629062 -4.64527,10.6512656 -4.64527,3.9414375 -12.48122,3.9414375 -5.1614,0 -9.61898,-2.06456248 -4.410659,-2.11148442 -7.789034,-6.09984382 z"
       id="path338"
       transform="matrix(1,0,0,-1,223.78,27.48)"
       style="fill:#da6f33"
       clip-path="url(#clipPath373)" />
  </g>
</svg>
